<?xml version="1.0" encoding="iso-8859-1"?>
<!-- Generator: Adobe Illustrator 19.0.0, SVG Export Plug-In . SVG Version: 6.00 Build 0)  -->
<svg version="1.1" id="Layer_1" xmlns="http://www.w3.org/2000/svg" xmlns:xlink="http://www.w3.org/1999/xlink" x="0px" y="0px"
	 viewBox="0 0 512 512" style="enable-background:new 0 0 512 512;" xml:space="preserve">
<path style="fill:#CFD1D1;" d="M310.011,503.916h19.403c8.929,0,16.168-7.239,16.168-16.168c0-8.929-7.239-16.168-16.168-16.168
	H182.586c-8.929,0-16.168,7.239-16.168,16.168c0,8.929,7.239,16.168,16.168,16.168h102.638"/>
<g style="opacity:0.2;">
	<path style="fill:#020202;" d="M192.163,487.747c0-8.929,7.238-16.168,16.168-16.168h-25.747c-8.929,0-16.168,7.239-16.168,16.168
		c0,8.929,7.239,16.168,16.168,16.168h25.747C199.401,503.916,192.163,496.677,192.163,487.747z"/>
</g>
<path style="fill:#E0E2E2;" d="M188.624,471.579h134.752c-12.083-25.037-37.711-42.312-67.376-42.312
	C226.335,429.267,200.707,446.54,188.624,471.579z"/>
<g style="opacity:0.2;">
	<path style="fill:#020202;" d="M270.732,430.731c-4.764-0.953-9.687-1.463-14.732-1.463c-29.665,0-55.293,17.273-67.376,42.312
		h29.463C228.115,450.798,247.479,435.378,270.732,430.731z"/>
</g>
<path style="fill:#EBEDED;" d="M256,429.267c5.551,0,10.962,0.606,16.168,1.754V243.115h-32.337v187.906
	C245.038,429.873,250.449,429.267,256,429.267z"/>
<g style="opacity:0.1;">
	<path style="fill:#020202;" d="M256,429.267c5.551,0,10.962,0.606,16.168,1.754V243.115h-32.337v187.906
		C245.038,429.873,250.449,429.267,256,429.267z"/>
</g>
<polygon style="fill:#EBEDED;" points="272.168,243.115 464.72,8.084 47.28,8.084 239.832,243.115 "/>
<polyline style="fill:#FF6A5E;" points="172.587,76.833 103.603,76.833 239.832,243.115 272.168,243.115 408.397,76.833 
	196.839,76.833 "/>
<path style="fill:#020202;" d="M472.026,4.624C470.69,1.801,467.844,0,464.72,0H47.28c-3.124,0-5.969,1.801-7.306,4.624
	c-1.338,2.824-0.927,6.167,1.053,8.583l56.319,68.744c0.001,0.002,0.002,0.003,0.004,0.005l134.397,164.047v178.87
	c-20.1,6.217-37.501,19.967-48.006,38.621h-1.157c-13.372,0-24.253,10.88-24.253,24.253S169.212,512,182.585,512h102.638
	c4.466,0,8.084-3.618,8.084-8.084s-3.618-8.084-8.084-8.084H182.585c-4.458,0-8.084-3.626-8.084-8.084s3.626-8.084,8.084-8.084
	h6.039h134.752h6.039c4.458,0,8.084,3.626,8.084,8.084s-3.626,8.084-8.084,8.084h-19.403c-4.466,0-8.084,3.618-8.084,8.084
	s3.618,8.084,8.084,8.084h19.403c13.372,0,24.253-10.88,24.253-24.253s-10.88-24.253-24.253-24.253h-1.157
	c-10.505-18.654-27.906-32.404-48.006-38.621v-178.87L414.651,81.957c0.001-0.002,0.002-0.004,0.004-0.005l56.319-68.744
	C472.953,10.791,473.364,7.448,472.026,4.624z M308.93,463.495H203.069c10.9-14.14,27.219-23.509,45.052-25.665
	c0.057-0.006,0.114-0.016,0.171-0.023c0.916-0.108,1.84-0.177,2.764-0.246c0.411-0.03,0.819-0.077,1.231-0.099
	c0.416-0.024,0.835-0.022,1.253-0.037c1.641-0.059,3.282-0.059,4.923,0c0.417,0.015,0.836,0.013,1.251,0.037
	c0.412,0.023,0.82,0.069,1.231,0.099c0.924,0.07,1.848,0.138,2.764,0.246c0.057,0.007,0.113,0.016,0.17,0.023
	C281.712,439.986,298.03,449.355,308.93,463.495z M260.88,421.341c-0.445-0.026-0.89-0.054-1.336-0.073
	c-1.178-0.052-2.358-0.085-3.544-0.085c-1.186,0-2.366,0.035-3.544,0.085c-0.446,0.019-0.89,0.046-1.337,0.073
	c-0.69,0.041-1.379,0.092-2.065,0.15c-0.379,0.031-0.76,0.046-1.139,0.083V251.199h16.168v170.375
	c-0.378-0.037-0.76-0.052-1.139-0.083C262.258,421.433,261.569,421.382,260.88,421.341z M404.568,68.749h-207.73
	c-4.466,0-8.084,3.618-8.084,8.084c0,4.466,3.618,8.084,8.084,8.084h194.483L268.341,235.031h-24.682L120.678,84.918h51.91
	c4.466,0,8.084-3.618,8.084-8.084c0-4.466-3.618-8.084-8.084-8.084h-65.157L64.354,16.168h383.293L404.568,68.749z"/>
<g style="opacity:0.2;">
	<polygon style="fill:#020202;" points="79.975,8.084 47.28,8.084 239.832,243.115 272.168,243.115 272.348,242.896 	"/>
</g>
<g>
</g>
<g>
</g>
<g>
</g>
<g>
</g>
<g>
</g>
<g>
</g>
<g>
</g>
<g>
</g>
<g>
</g>
<g>
</g>
<g>
</g>
<g>
</g>
<g>
</g>
<g>
</g>
<g>
</g>
</svg>
