<?xml version="1.0" encoding="iso-8859-1"?>
<!-- Generator: Adobe Illustrator 19.0.0, SVG Export Plug-In . SVG Version: 6.00 Build 0)  -->
<svg xmlns="http://www.w3.org/2000/svg" xmlns:xlink="http://www.w3.org/1999/xlink" version="1.1" id="Capa_1" x="0px" y="0px" viewBox="0 0 512 512" style="enable-background:new 0 0 512 512;" xml:space="preserve">
<path style="fill:#D8B77C;" d="M411,211.348L385.812,463.73H46.75L23.5,123.984h280.938L411,211.348z"/>
<path style="fill:#5BA14D;" d="M204.055,107.41c0,26.844-21.717,48.605-48.507,48.605c-16.242,0-30.617-8-39.421-20.28  c-7.658,16.747-24.532,28.381-44.119,28.381c-26.79,0-48.507-21.761-48.507-48.605s21.717-48.605,48.507-48.605  c4.277,0,8.424,0.557,12.375,1.599c-1.039-3.959-1.595-8.114-1.595-12.4c0-26.844,21.717-48.605,48.507-48.605  s48.507,21.761,48.507,48.605c0,2.991-0.271,5.918-0.787,8.76C193.945,73.151,204.055,89.097,204.055,107.41z"/>
<path style="fill:#8EB55E;" d="M309.949,144.565c0,36.826-29.794,66.68-66.546,66.68c-22.282,0-42.003-10.975-54.081-27.822  c-10.506,22.975-33.655,38.935-60.526,38.935c-36.752,0-66.546-29.854-66.546-66.68s29.794-66.68,66.546-66.68  c5.868,0,11.557,0.764,16.977,2.193c-1.426-5.431-2.189-11.131-2.189-17.011c0-36.826,29.794-66.68,66.546-66.68  s66.546,29.854,66.546,66.68c0,4.103-0.372,8.119-1.08,12.017C296.08,97.565,309.949,119.441,309.949,144.565z"/>
<path style="fill:#FBB03B;" d="M288.738,7.5L288.738,7.5c29.426,0,53.281,23.855,53.281,53.281v247.637H235.457V60.781  C235.457,31.355,259.312,7.5,288.738,7.5z"/>
<path style="fill:#F99A1E;" d="M342.019,60.889v247.529H318V60.889c0-25.345-17.632-46.55-41.272-52.01  c3.862-0.892,7.878-1.379,12.01-1.379l0,0C318.165,7.5,342.019,31.403,342.019,60.889z"/>
<path style="fill:#F9E1A2;" d="M71.938,164.754c16.229,0,29.385,13.183,29.385,29.445V504.5H71.937l-41.524-34.951  c-4.383-3.689-6.913-9.13-6.913-14.865v-330.7L71.938,164.754L71.938,164.754z"/>
<path style="fill:#EACC8F;" d="M331.968,211.348H411v273.738c0,10.722-8.674,19.414-19.375,19.414H71.938V164.754h127.469  c24.092,0,47.468,8.216,66.281,23.297l0,0C284.501,203.132,307.876,211.348,331.968,211.348z"/>
<path style="fill:#C1E9FD;" d="M323.813,359.87c0-45.569,36.867-82.51,82.344-82.51s82.344,36.941,82.344,82.51  s-36.867,82.51-82.344,82.51S323.813,405.438,323.813,359.87z"/>
<path style="fill:#A4E0F7;" d="M488.5,359.87c0,45.569-36.867,82.51-82.344,82.51c-4.282,0-8.488-0.329-12.594-0.96  c39.499-6.074,69.75-40.271,69.75-81.549s-30.251-75.475-69.75-81.549c4.106-0.631,8.311-0.96,12.594-0.96  C451.633,277.36,488.5,314.3,488.5,359.87z"/>
<path style="fill:#5BA14D;" d="M472.881,279.975l-48.893,119.396c-2.041,4.985-6.663,8.433-12.014,8.962  c-0.479,0.047-0.957,0.071-1.432,0.071c-4.834,0-9.391-2.417-12.101-6.503l-32.596-49.163c-4.441-6.698-2.622-15.736,4.063-20.185  c6.684-4.45,15.703-2.627,20.145,4.071l17.443,26.309l38.499-94.013c3.046-7.44,11.535-10.997,18.96-7.943  C472.378,264.03,475.928,272.536,472.881,279.975z"/>
<path d="M136.773,64.025C141.766,27.525,173.302,0,210.13,0c6.94,0,13.813,0.963,20.429,2.861c3.981,1.143,6.283,5.297,5.14,9.278  s-5.295,6.283-9.278,5.14C221.151,15.767,215.67,15,210.13,15c-29.366,0-54.514,21.95-58.496,51.059  c-0.514,3.759-3.73,6.484-7.421,6.484c-0.338,0-0.681-0.023-1.026-0.07C139.083,71.911,136.211,68.13,136.773,64.025z   M307.771,61.533c-4.199,4.018-11.096,6.416-18.449,6.416s-14.251-2.398-18.45-6.416c-2.992-2.863-7.74-2.759-10.604,0.234  c-2.864,2.992-2.759,7.74,0.234,10.604c7.026,6.723,17.53,10.578,28.82,10.578c11.289,0,21.793-3.855,28.819-10.578  c2.993-2.863,3.098-7.611,0.234-10.604C315.512,58.773,310.764,58.668,307.771,61.533z M307.771,100.361  c-4.199,4.018-11.096,6.416-18.449,6.416s-14.251-2.398-18.45-6.416c-2.992-2.863-7.74-2.759-10.604,0.234  c-2.864,2.992-2.759,7.74,0.234,10.604c7.026,6.723,17.53,10.578,28.82,10.578c11.289,0,21.793-3.855,28.819-10.578  c2.993-2.863,3.098-7.611,0.234-10.604C315.512,97.602,310.764,97.496,307.771,100.361z M307.771,139.189  c-4.199,4.018-11.096,6.416-18.449,6.416s-14.251-2.398-18.45-6.416c-2.992-2.864-7.74-2.759-10.604,0.234  c-2.864,2.992-2.759,7.74,0.234,10.604c7.026,6.723,17.53,10.578,28.82,10.578c11.289,0,21.793-3.855,28.819-10.578  c2.993-2.863,3.098-7.611,0.234-10.604C315.512,136.43,310.764,136.324,307.771,139.189z M403.5,269.902v-51.054h-71.532  c-25.7,0-50.905-8.859-70.971-24.945c-17.415-13.96-39.288-21.648-61.59-21.648H79.437v88.923c0,4.143-3.358,7.5-7.5,7.5  s-7.5-3.357-7.5-7.5v-92.932L31,140.101v314.583c0,3.531,1.546,6.858,4.242,9.127l29.195,24.573V288.681c0-4.143,3.358-7.5,7.5-7.5  s7.5,3.357,7.5,7.5V497h312.188c6.548,0,11.875-5.345,11.875-11.914v-17.473c0-4.143,3.358-7.5,7.5-7.5s7.5,3.357,7.5,7.5v17.473  c0,14.841-12.056,26.914-26.875,26.914H71.937c0,0-0.001,0-0.002,0h-0.002c-0.002,0-0.004,0-0.006,0  c-0.392,0-0.774-0.04-1.149-0.098c-0.065-0.01-0.129-0.018-0.194-0.029c-0.372-0.068-0.734-0.165-1.084-0.285  c-0.064-0.022-0.127-0.046-0.19-0.07c-0.362-0.135-0.711-0.294-1.044-0.481c-0.044-0.025-0.087-0.053-0.131-0.079  c-0.354-0.209-0.693-0.442-1.007-0.705c-0.006-0.005-0.014-0.009-0.02-0.014l-41.524-34.951C19.493,470.161,16,462.651,16,454.684  v-330.7c0-0.018,0.004-0.035,0.004-0.053L16,115.512c0-30.937,25.125-56.105,56.007-56.105c1.129,0,2.257,0.034,3.381,0.102  c-0.068-1.132-0.102-2.267-0.102-3.402C75.287,25.169,100.412,0,131.294,0c7.045,0,13.918,1.296,20.426,3.851  c3.856,1.514,5.754,5.867,4.24,9.723c-1.514,3.855-5.866,5.756-9.722,4.24C141.483,15.946,136.456,15,131.294,15  c-22.611,0-41.007,18.439-41.007,41.105c0,3.554,0.454,7.085,1.349,10.495c0.678,2.579-0.066,5.325-1.954,7.211  c-1.887,1.885-4.634,2.626-7.213,1.945c-3.398-0.896-6.918-1.351-10.462-1.351C49.396,74.406,31,92.846,31,115.512l0.002,4.984  l25.099,21.125c6.578-34.202,36.664-60.123,72.695-60.123c6.389,0,12.744,0.821,18.888,2.441c4.005,1.056,6.396,5.158,5.341,9.164  c-1.056,4.005-5.159,6.397-9.164,5.34c-4.897-1.291-9.966-1.945-15.065-1.945c-31.716,0-57.661,25.196-58.982,56.665l4.86,4.091  h124.733c9.669,0,19.268,1.256,28.55,3.677V60.889C227.957,27.314,255.223,0,288.738,0s60.781,27.314,60.781,60.889v90.486  l66.229,54.167c0.003,0.002,0.005,0.005,0.008,0.007c0.192,0.157,0.376,0.324,0.551,0.499c0.088,0.088,0.166,0.183,0.249,0.274  c0.08,0.089,0.164,0.174,0.241,0.267c0.096,0.116,0.181,0.238,0.268,0.359c0.056,0.076,0.115,0.15,0.168,0.229  c0.079,0.117,0.147,0.239,0.219,0.36c0.053,0.09,0.11,0.178,0.16,0.271c0.058,0.107,0.106,0.218,0.158,0.328  c0.054,0.113,0.11,0.223,0.158,0.339c0.039,0.094,0.07,0.19,0.105,0.286c0.05,0.135,0.102,0.269,0.144,0.407  c0.026,0.085,0.044,0.173,0.067,0.259c0.04,0.149,0.081,0.298,0.112,0.45c0.021,0.105,0.032,0.212,0.049,0.318  c0.021,0.134,0.046,0.267,0.06,0.404c0.025,0.245,0.037,0.492,0.037,0.739c0,0.004,0.001,0.008,0.001,0.012v59.362  c5.787,0.796,11.467,2.146,16.994,4.06l3.559-8.692c2.235-5.459,6.46-9.717,11.897-11.989c5.429-2.27,11.416-2.287,16.856-0.047  c11.231,4.615,16.622,17.525,12.014,28.775l-48.894,119.396c-3.101,7.572-10.081,12.777-18.215,13.584  c-0.711,0.07-1.442,0.106-2.171,0.106c-7.399,0-14.259-3.686-18.352-9.858l-32.595-49.163c-6.714-10.128-3.953-23.843,6.157-30.573  c4.902-3.264,10.779-4.417,16.547-3.255c5.773,1.165,10.747,4.512,14.005,9.425l9.618,14.507l23.872-58.295  c-7.592-2.535-15.521-3.832-23.637-3.832c-41.269,0-74.844,33.649-74.844,75.01s33.575,75.01,74.844,75.01S481,401.229,481,359.869  c0-12.146-2.961-24.206-8.563-34.876c-1.926-3.667-0.514-8.201,3.154-10.127c3.666-1.927,8.201-0.513,10.126,3.154  C492.444,330.833,496,345.304,496,359.869c0,49.632-40.304,90.01-89.844,90.01s-89.844-40.378-89.844-90.01  C316.312,311.128,355.184,271.315,403.5,269.902z M414.436,365.774c-1.052,2.571-3.439,4.349-6.204,4.622  c-2.768,0.27-5.453-1.004-6.988-3.319l-17.443-26.309c-1.041-1.569-2.627-2.639-4.469-3.01c-0.466-0.094-0.934-0.141-1.399-0.141  c-1.367,0-2.705,0.402-3.871,1.178c-3.237,2.155-4.12,6.551-1.967,9.798l32.595,49.163c1.307,1.971,3.494,3.147,5.85,3.147  c0.235,0,0.466-0.011,0.686-0.033c0.002,0,0.004,0,0.006-0.001c2.595-0.257,4.823-1.92,5.814-4.34l48.894-119.396  c1.477-3.606-0.245-7.742-3.838-9.22c-1.735-0.713-3.64-0.708-5.367,0.015c-1.736,0.726-3.086,2.087-3.801,3.833L414.436,365.774z   M349.519,170.753v33.095h40.464L349.519,170.753z M331.968,203.848h2.551V60.889c0-25.303-20.538-45.889-45.781-45.889  s-45.781,20.586-45.781,45.889v105.11c9.806,4.075,19.064,9.5,27.422,16.201C287.793,196.159,309.667,203.848,331.968,203.848z"/>
<g>
</g>
<g>
</g>
<g>
</g>
<g>
</g>
<g>
</g>
<g>
</g>
<g>
</g>
<g>
</g>
<g>
</g>
<g>
</g>
<g>
</g>
<g>
</g>
<g>
</g>
<g>
</g>
<g>
</g>
</svg>
