<?xml version="1.0" encoding="iso-8859-1"?>
<!-- Uploaded to: SVG Repo, www.svgrepo.com, Generator: SVG Repo Mixer Tools -->
<svg height="800px" width="800px" version="1.1" id="Layer_1" xmlns="http://www.w3.org/2000/svg" xmlns:xlink="http://www.w3.org/1999/xlink" 
	 viewBox="0 0 512 512" xml:space="preserve">
<path style="fill:#F9DCA4;" d="M443.346,281.161l-6.392,40.168l-23.5,147.5c-2.532,15.898-16.244,27.598-32.343,27.598H130.899
	c-16.099,0-29.811-11.7-32.343-27.598l-23.5-147.5l-6.404-40.168l89.057-107.243l218.887,38.422L443.346,281.161z"/>
<g>
	<path style="fill:#E7C080;" d="M443.346,281.161l-6.392,40.168c-6.229,1.432-12.714,2.189-19.374,2.189
		c-28.828,0-54.314-14.251-69.846-36.082c-24.054,22.378-56.294,36.082-91.735,36.082s-67.68-13.704-91.735-36.082
		c-15.532,21.831-41.018,36.082-69.846,36.082c-6.66,0-13.145-0.757-19.362-2.189l-6.404-40.168l89.057-107.243l218.888,38.422
		L443.346,281.161z"/>
	<path style="fill:#E7C080;" d="M161.037,496.428h-30.141c-16.099,0-29.811-11.7-32.343-27.598L64.812,257.017l70.915-19.33
		L161.037,496.428z"/>
</g>
<path style="fill:#EC589B;" d="M503.272,199.415c0,47.317-38.364,85.68-85.692,85.68c-28.828,0-54.314-14.251-69.846-36.081
	c-24.054,22.378-56.294,36.081-91.735,36.081s-67.68-13.704-91.735-36.081c-15.532,21.831-41.018,36.081-69.846,36.081
	c-47.317,0-85.68-38.364-85.68-85.68c0-41.414,29.375-75.959,68.414-83.946c5.577-1.141,11.352-1.746,17.267-1.746
	c10.723,0,20.981,1.991,30.446,5.589c14.018-59.461,67.389-103.739,131.135-103.739s117.116,44.278,131.135,103.739
	c9.466-3.598,19.723-5.589,30.446-5.589c4.25,0,8.429,0.314,12.516,0.908C471.487,120.686,503.272,156.336,503.272,199.415z"/>
<g>
	<path style="fill:#D3468D;" d="M430.096,114.632c-33.217,4.331-66.237,46.793-66.237,46.793c0-29.69,23.274-42.113,23.274-42.113
		c9.466-3.598,19.723-5.589,30.446-5.589C421.83,113.724,426.01,114.038,430.096,114.632z"/>
	<path style="fill:#D3468D;" d="M94.419,285.096c-47.317,0-85.68-38.364-85.68-85.68c0-41.414,29.375-75.959,68.414-83.946
		C77.152,115.47-12.603,204.457,94.419,285.096z"/>
	<path style="fill:#D3468D;" d="M178.667,166.932l-53.802-47.62c14.018-59.461,67.389-103.739,131.135-103.739
		C255.999,15.574,159.118,61.773,178.667,166.932z"/>
</g>
<path d="M512,199.411c0-52.064-42.357-94.42-94.421-94.42c-8.297,0-16.474,1.075-24.415,3.203
	c-7.091-23.13-19.937-44.093-37.509-61.073c-3.468-3.353-8.998-3.255-12.347,0.211c-3.351,3.468-3.257,8.997,0.212,12.347
	c17.44,16.854,29.582,38.167,35.114,61.634c0.578,2.45,2.183,4.53,4.405,5.71c2.224,1.181,4.846,1.344,7.199,0.449
	c8.754-3.329,17.953-5.017,27.342-5.017c42.434,0,76.956,34.523,76.956,76.955c0,42.434-34.521,76.956-76.956,76.956
	c-24.839,0-48.29-12.116-62.731-32.409c-1.458-2.049-3.727-3.369-6.229-3.624c-2.499-0.256-4.992,0.581-6.832,2.292
	c-23.397,21.758-53.863,33.741-85.788,33.741s-62.392-11.983-85.789-33.742c-1.841-1.712-4.331-2.547-6.832-2.292
	s-4.771,1.576-6.23,3.624c-14.44,20.295-37.891,32.41-62.73,32.41c-42.433,0-76.954-34.523-76.954-76.956
	c0-42.433,34.521-76.955,76.956-76.955c9.389,0,18.589,1.688,27.342,5.017c2.353,0.895,4.974,0.731,7.199-0.449
	c2.221-1.179,3.827-3.26,4.405-5.71c6.404-27.163,21.989-51.795,43.883-69.361c22.548-18.088,49.779-27.649,78.751-27.649
	c23.937,0,47.22,6.739,67.334,19.489c4.074,2.581,9.468,1.374,12.052-2.7c2.581-4.074,1.373-9.468-2.7-12.05
	C309.771,14.518,283.254,6.84,256.002,6.84c-32.516,0-64.365,11.183-89.678,31.491c-22.45,18.009-39.074,42.556-47.48,69.865
	c-7.943-2.13-16.123-3.205-24.422-3.205C42.357,104.991,0,147.347,0,199.411c0,40.238,25.311,74.659,60.84,88.228l29.09,182.565
	c3.226,20.254,20.456,34.956,40.967,34.956h250.22c20.511,0,37.741-14.702,40.967-34.958l29.077-182.561
	C486.688,274.07,512,239.65,512,199.411z M162.552,422.226c-0.469-4.8-4.747-8.319-9.54-7.84c-4.799,0.469-8.31,4.741-7.84,9.54
	l6.238,63.77h-20.514c-11.876,0-21.851-8.512-23.72-20.239l-27.86-174.848c4.921,0.795,9.963,1.224,15.104,1.224
	c12.974,0,25.635-2.698,37.269-7.711l10.62,108.567c0.442,4.512,4.242,7.883,8.681,7.883c0.284,0,0.572-0.014,0.86-0.042
	c4.799-0.469,8.31-4.741,7.84-9.54l-11.359-116.116c6.251-4.349,12.002-9.461,17.094-15.265
	c23.309,19.011,51.82,30.144,81.841,31.956v194.131h-78.312L162.552,422.226z M404.836,467.454
	c-1.868,11.728-11.844,20.241-23.72,20.241H360.59l11.34-115.922c0.468-4.799-3.041-9.071-7.84-9.54
	c-4.814-0.468-9.071,3.041-9.541,7.84l-11.506,117.622h-78.309V293.563c30.019-1.814,58.53-12.947,81.839-31.956
	c5.091,5.803,10.843,10.915,17.093,15.264l-5.749,58.775c-0.468,4.799,3.041,9.071,7.84,9.54c0.29,0.028,0.576,0.042,0.86,0.042
	c4.439,0,8.239-3.372,8.681-7.883l5.011-51.224c11.634,5.013,24.297,7.711,37.27,7.711c5.142,0,10.184-0.428,15.104-1.224
	L404.836,467.454z"/>
</svg>