<?xml version="1.0" encoding="UTF-8" standalone="no"?>
<svg xmlns:dc="http://purl.org/dc/elements/1.1/" xmlns:cc="http://creativecommons.org/ns#" xmlns:rdf="http://www.w3.org/1999/02/22-rdf-syntax-ns#" xmlns:svg="http://www.w3.org/2000/svg" xmlns="http://www.w3.org/2000/svg" xmlns:sodipodi="http://sodipodi.sourceforge.net/DTD/sodipodi-0.dtd" xmlns:inkscape="http://www.inkscape.org/namespaces/inkscape" width="233pt" height="233pt" viewBox="0 0 233 233" version="1.1" id="svg2" inkscape:version="0.48.3.1 r9886" sodipodi:docname="Pharmacy_Green_Cross2.svg">
  <metadata id="metadata36">
    <rdf:RDF>
      <cc:Work rdf:about="">
        <dc:format>image/svg+xml</dc:format>
        <dc:type rdf:resource="http://purl.org/dc/dcmitype/StillImage"/>
      </cc:Work>
    </rdf:RDF>
  </metadata>
  <defs id="defs34"/>
  <sodipodi:namedview pagecolor="#ffffff" bordercolor="#666666" borderopacity="1" objecttolerance="10" gridtolerance="10" guidetolerance="10" inkscape:pageopacity="0" inkscape:pageshadow="2" inkscape:window-width="1440" inkscape:window-height="813" id="namedview32" showgrid="false" inkscape:zoom="1.6206009" inkscape:cx="196.64724" inkscape:cy="145.04812" inkscape:window-x="0" inkscape:window-y="27" inkscape:window-maximized="1" inkscape:current-layer="svg2"/>
  <path fill="#008000" d=" M 80.78 18.78 C 105.26 18.78 129.74 18.78 154.22 18.78 C 154.19 39.47 154.30 60.16 154.16 80.84 C 174.84 80.70 195.53 80.81 216.22 80.78 C 216.22 105.59 216.22 130.41 216.22 155.22 C 195.53 155.19 174.84 155.30 154.16 155.16 C 154.30 175.84 154.19 196.53 154.22 217.22 C 129.74 217.22 105.26 217.22 80.78 217.22 C 80.81 196.53 80.70 175.84 80.84 155.16 C 60.16 155.30 39.47 155.19 18.78 155.22 C 18.78 130.41 18.78 105.59 18.78 80.78 C 39.47 80.81 60.16 80.70 80.84 80.84 C 80.70 60.16 80.81 39.47 80.78 18.78 Z" id="path6"/>
  <path fill="#c6f7bd" d=" M 87.02 25.00 C 89.01 25.00 90.99 25.00 92.98 25.00 C 93.01 47.42 93.01 69.84 92.98 92.26 C 90.97 90.49 88.92 88.72 87.22 86.62 C 86.93 85.11 86.99 83.56 86.97 82.03 C 87.06 63.02 86.95 44.01 87.02 25.00 Z" id="path8"/>
  <path fill="#c6f7bd" d=" M 99.02 25.00 C 101.01 25.00 102.99 25.00 104.98 25.00 C 105.01 51.42 105.01 77.84 104.98 104.26 C 102.72 101.79 98.55 99.92 98.99 96.03 C 99.03 72.35 98.97 48.68 99.02 25.00 Z" id="path10"/>
  <path fill="#c6f7bd" d=" M 111.02 25.00 C 113.00 25.00 114.99 25.00 116.98 25.00 C 117.01 55.42 117.01 85.84 116.98 116.26 C 114.72 113.79 110.55 111.92 110.99 108.03 C 111.03 80.36 110.97 52.68 111.02 25.00 Z" id="path12"/>
  <path fill="#c6f7bd" d=" M 148.38 87.22 C 150.56 86.84 152.79 87.00 155.00 86.98 C 173.33 87.05 191.67 86.96 210.00 87.02 C 210.00 89.00 210.00 90.99 210.00 92.98 C 187.58 93.01 165.16 93.01 142.73 92.98 C 144.51 90.97 146.28 88.92 148.38 87.22 Z" id="path14"/>
  <path fill="#c6f7bd" d=" M 136.38 99.22 C 138.90 98.80 141.46 99.02 144.00 98.98 C 166.00 99.04 188.00 98.96 210.00 99.02 C 210.00 101.00 210.00 102.99 210.00 104.98 C 183.58 105.01 157.16 105.01 130.74 104.99 C 132.51 102.97 134.28 100.92 136.38 99.22 Z" id="path16"/>
  <path fill="#c6f7bd" d=" M 124.38 111.22 C 126.89 110.80 129.46 111.02 132.00 110.98 C 158.00 111.04 184.00 110.96 210.00 111.02 C 210.00 113.01 210.00 114.99 210.00 116.98 C 179.58 117.01 149.16 117.01 118.74 116.98 C 120.51 114.97 122.28 112.92 124.38 111.22 Z" id="path18"/>
  <path fill="#c6f7bd" d=" M 25.00 119.02 C 55.42 118.99 85.84 118.99 116.26 119.01 C 113.79 121.28 111.92 125.45 108.04 125.01 C 80.36 124.97 52.68 125.03 25.00 124.98 C 25.00 122.99 25.00 121.00 25.00 119.02 Z" id="path20"/>
  <path fill="#c6f7bd" d=" M 118.02 119.74 C 120.03 121.51 122.08 123.28 123.78 125.38 C 124.20 127.89 123.98 130.46 124.02 133.00 C 123.96 159.00 124.04 185.00 123.98 211.00 C 121.99 211.00 120.00 211.00 118.02 211.00 C 117.99 180.58 117.99 150.16 118.02 119.74 Z" id="path22"/>
  <path fill="#c6f7bd" d=" M 25.00 131.02 C 51.42 130.99 77.84 130.99 104.26 131.02 C 101.79 133.28 99.91 137.45 96.03 137.01 C 72.35 136.97 48.67 137.03 25.00 136.98 C 25.00 134.99 25.00 133.00 25.00 131.02 Z" id="path24"/>
  <path fill="#c6f7bd" d=" M 130.01 131.74 C 132.03 133.51 134.08 135.28 135.78 137.38 C 136.19 139.90 135.98 142.46 136.02 145.00 C 135.96 167.00 136.04 189.00 135.98 211.00 C 133.99 211.00 132.01 211.00 130.02 211.00 C 129.99 184.58 129.99 158.16 130.01 131.74 Z" id="path26"/>
  <path fill="#c6f7bd" d=" M 25.00 143.02 C 47.42 142.99 69.84 142.99 92.26 143.01 C 90.48 145.03 88.72 147.08 86.62 148.78 C 85.11 149.07 83.56 149.01 82.03 149.03 C 63.02 148.94 44.01 149.05 25.00 148.98 C 25.00 146.99 25.00 145.00 25.00 143.02 Z" id="path28"/>
  <path fill="#c6f7bd" d=" M 142.02 143.74 C 144.03 145.51 146.08 147.28 147.78 149.38 C 148.07 150.88 148.01 152.43 148.03 153.97 C 147.94 172.98 148.05 191.99 147.98 211.00 C 145.99 211.00 144.00 211.00 142.02 211.00 C 141.99 188.58 141.99 166.16 142.02 143.74 Z" id="path30"/>
</svg>